<svg xmlns="http://www.w3.org/2000/svg" xmlns:xlink="http://www.w3.org/1999/xlink" width="40" height="40" preserveAspectRatio="xMidYMid meet" version="1.0" viewBox="0 0 375 375" zoomAndPan="magnify"><defs><clipPath id="81ee960cc3"><path d="M 56.25 0 L 318.75 0 C 349.816406 0 375 25.183594 375 56.25 L 375 318.75 C 375 349.816406 349.816406 375 318.75 375 L 56.25 375 C 25.183594 375 0 349.816406 0 318.75 L 0 56.25 C 0 25.183594 25.183594 0 56.25 0 Z M 56.25 0" clip-rule="nonzero"/></clipPath></defs><rect width="450" height="450" x="-37.5" y="-37.5" fill="#fff" fill-opacity="1"/><rect width="450" height="450" x="-37.5" y="-37.5" fill="#fff" fill-opacity="1"/><g clip-path="url(#81ee960cc3)"><rect width="450" height="450" x="-37.5" y="-37.5" fill="#fff" fill-opacity="1"/></g><g fill="#000" fill-opacity="1"><g><g><path d="M 24.1875 -136.8125 C 24.1875 -150.03125 25.972656 -161.863281 29.546875 -172.3125 C 33.117188 -182.757812 38.207031 -191.679688 44.8125 -199.078125 C 51.425781 -206.484375 59.359375 -212.164062 68.609375 -216.125 C 77.859375 -220.09375 88.035156 -222.078125 99.140625 -222.078125 C 115.003906 -222.078125 128.09375 -218.375 138.40625 -210.96875 C 148.71875 -203.570312 155.0625 -193.394531 157.4375 -180.4375 L 161.40625 -180.4375 C 161.144531 -184.9375 160.878906 -189.429688 160.609375 -193.921875 C 160.085938 -197.890625 159.757812 -202.054688 159.625 -206.421875 C 159.488281 -210.785156 159.421875 -214.6875 159.421875 -218.125 L 159.421875 -289.5 L 209 -289.5 L 209 0 L 161.40625 0 L 161.40625 -38.078125 L 157.4375 -38.078125 C 155.0625 -24.859375 148.71875 -14.546875 138.40625 -7.140625 C 128.09375 0.265625 115.003906 3.96875 99.140625 3.96875 C 88.035156 3.96875 77.859375 1.984375 68.609375 -1.984375 C 59.359375 -5.953125 51.425781 -11.703125 44.8125 -19.234375 C 38.207031 -26.765625 33.117188 -35.882812 29.546875 -46.59375 C 25.972656 -57.300781 24.1875 -69.265625 24.1875 -82.484375 Z M 116.984375 -39.265625 C 129.941406 -39.265625 140.253906 -43.226562 147.921875 -51.15625 C 155.585938 -59.09375 159.421875 -69.535156 159.421875 -82.484375 L 159.421875 -135.625 C 159.421875 -148.84375 155.519531 -159.414062 147.71875 -167.34375 C 139.925781 -175.28125 129.679688 -179.25 116.984375 -179.25 C 103.503906 -179.25 92.929688 -175.347656 85.265625 -167.546875 C 77.597656 -159.753906 73.765625 -149.113281 73.765625 -135.625 L 73.765625 -83.671875 C 73.765625 -70.191406 77.597656 -59.421875 85.265625 -51.359375 C 92.929688 -43.296875 103.503906 -39.265625 116.984375 -39.265625 Z M 116.984375 -39.265625" transform="translate(68.52331, 333.851271)"/></g></g></g></svg>